<?xml version="1.0" encoding="utf-8"?>
<!-- Generator: Adobe Illustrator 16.0.4, SVG Export Plug-In . SVG Version: 6.00 Build 0)  -->
<!DOCTYPE svg PUBLIC "-//W3C//DTD SVG 1.1//EN" "http://www.w3.org/Graphics/SVG/1.1/DTD/svg11.dtd">
<svg version="1.1" id="Layer_1" xmlns="http://www.w3.org/2000/svg" xmlns:xlink="http://www.w3.org/1999/xlink" x="0px" y="0px"
	 width="100px" height="20px" viewBox="0 0 100 20" enable-background="new 0 0 100 20" xml:space="preserve">
<g>
	<path fill="#444444" d="M36.344,10.645c0.478,0,0.716,0.197,0.716,0.592c0,0.486-0.291,1.062-0.872,1.733
		c-0.961,1.117-2.095,2.207-3.399,3.265c-2.125,1.699-4.021,2.55-5.691,2.55c-1.2,0-2.184-0.521-2.952-1.565
		c-0.797-1.088-1.196-2.549-1.196-4.383c0-2.407,1.174-5.068,3.522-7.984c1.491-1.855,2.896-3.114,4.215-3.778
		c0.41-0.209,0.725-0.313,0.945-0.313c0.22,0,0.421,0.035,0.604,0.106c0.183,0.07,0.353,0.169,0.509,0.296
		c0.365,0.306,0.547,0.674,0.547,1.107c0,0.432-0.119,0.945-0.358,1.538c-0.238,0.593-0.585,1.225-1.04,1.895
		c-0.961,1.424-2.262,2.787-3.902,4.092c-0.425,0.812-0.637,1.79-0.637,2.93c0,0.516,0.164,0.999,0.491,1.455
		c0.336,0.454,0.705,0.682,1.107,0.682c0.551,0,1.606-0.571,3.164-1.711l1.99-1.533C34.92,10.969,35.666,10.645,36.344,10.645z"/>
	<path fill="#444444" d="M47.847,9.92c1.898,0.536,2.508-0.896,2.508-0.896c0.275-0.157,0.518-0.235,0.723-0.235
		s0.365,0.063,0.484,0.19c0.119,0.128,0.18,0.302,0.18,0.526c0,0.223-0.074,0.481-0.225,0.776c-0.148,0.295-0.354,0.604-0.615,0.929
		c-0.26,0.322-0.566,0.646-0.915,0.961c-0.352,0.316-0.385,0.355-1.562,0.764c-0.766,0.266-2.359,0.104-2.844-0.172
		c-0.075-0.045-0.602,1.262-1.75,2.359c-1.136,1.086-2.562,2.177-3.314,2.554c-1.61,0.807-3.015,1.207-4.215,1.207
		c-1.259,0-2.255-0.494-2.985-1.486c-0.589-0.805-0.884-1.621-0.884-2.448c0-1.193,0.638-2.33,1.913-3.409
		c0.939-0.791,1.846-1.392,2.722-1.801c0.875-0.411,1.667-0.728,2.375-0.95c1.499-0.47,2.5-0.775,3.701-0.775
		c0.537,0,0.703-0.078,1.656,0.234C46.385,8.768,46.41,9.514,47.847,9.92z M37.297,13.765l-0.011,0.032v0.013
		c0,0.32,0.071,0.528,0.213,0.626c0.342,0.208,0.704,0.262,1.084,0.161c0.38-0.101,0.741-0.226,1.084-0.374
		c0.85-0.366,1.602-0.846,2.303-1.387c0.626-0.483,1.362-0.903,1.364-1.625c0.001-0.536-0.417-1.075-1.431-0.776
		c-0.805,0.248-1.064,0.478-2.078,1.037c-1.118,0.619-1.702,1.111-2.26,1.768C37.387,13.462,37.297,13.638,37.297,13.765z"/>
	<path fill="#444444" d="M61.104,10.88c0.73,0,1.096,0.253,1.096,0.76c0,0.483-0.342,1.111-1.029,1.879l-0.547,0.568
		c-0.664,0.68-1.436,1.346-2.318,2.002c-0.883,0.657-1.662,1.175-2.332,1.555c-1.559,0.865-2.971,1.298-4.238,1.298
		c-1.193,0-2.165-0.358-2.917-1.073c-0.648-0.619-0.974-1.272-0.974-1.958c0-0.685,0.067-1.367,0.202-2.046
		c0.134-0.679,0.309-1.343,0.525-1.989c0.432-1.319,0.904-2.441,1.419-3.366c0.134-0.254,0.201-0.418,0.201-0.492H48.75
		c-0.544,0-0.966-0.126-1.264-0.38c-0.298-0.253-0.447-0.541-0.447-0.861c0-0.319,0.06-0.556,0.179-0.704
		c0.119-0.148,0.268-0.256,0.447-0.324c0.254-0.104,0.627-0.157,1.118-0.157l2.738,0.012c0.061-0.022,0.18-0.182,0.359-0.48
		l0.682-1.174c0.291-0.521,0.584-0.906,0.879-1.151c0.295-0.246,0.643-0.369,1.041-0.369s0.732,0.037,1.004,0.112
		c0.273,0.074,0.5,0.167,0.688,0.279c0.365,0.239,0.547,0.5,0.547,0.783c0,0.119-0.041,0.279-0.123,0.481l-0.625,1.52l5.311-0.012
		c0.463,0,0.693,0.24,0.693,0.716c0,1.134-1.01,1.7-3.029,1.7l-4.094,0.011c-0.088,0.045-0.242,0.261-0.457,0.649l-0.504,0.927
		c-0.127,0.231-0.217,0.407-0.27,0.526l-0.246,0.547c-0.498,1.126-0.748,1.938-0.748,2.439c0,0.498,0.133,0.916,0.398,1.251
		c0.266,0.336,0.615,0.504,1.057,0.504c0.438,0,0.871-0.087,1.291-0.258c0.422-0.172,0.832-0.38,1.234-0.626
		c0.73-0.456,1.305-0.876,1.723-1.264c0.416-0.389,0.764-0.681,1.039-0.883l0.783-0.549C60.557,11.014,60.873,10.88,61.104,10.88z"
		/>
	<path fill="#444444" d="M68.148,14.848c-0.141,0-0.279-0.032-0.416-0.1c-0.139-0.068-0.27-0.175-0.389-0.323
		c-0.26-0.329-0.391-0.776-0.391-1.343c0-0.604,0.361-1.357,1.084-2.259c0.701-0.872,1.518-1.625,2.449-2.258
		c0.998-0.687,1.855-1.029,2.57-1.029c0.635,0,1.062,0.18,1.287,0.537L74.5,8.319c0.119,0.186,0.238,0.278,0.357,0.278
		s0.307-0.011,0.559-0.032l1.588-0.111c0.246-0.023,0.441-0.034,0.582-0.034c0.143,0,0.305,0.05,0.488,0.15
		c0.182,0.101,0.342,0.233,0.484,0.396c0.312,0.373,0.469,0.783,0.469,1.23c0,0.462-0.51,1.189-1.531,2.181l-0.738,0.738
		c-0.529,0.543-0.793,0.886-0.793,1.028c0,0.142,0.066,0.265,0.201,0.373s0.279,0.162,0.436,0.162s0.336-0.041,0.533-0.128
		c0.197-0.085,0.439-0.212,0.73-0.38c0.291-0.167,0.623-0.371,0.994-0.608c1.021-0.673,1.705-1.133,2.047-1.388l0.928-0.659
		c0.635-0.447,1.086-0.67,1.354-0.67s0.488,0.057,0.66,0.171c0.172,0.117,0.258,0.316,0.258,0.599c0,0.284-0.146,0.664-0.438,1.141
		c-0.291,0.478-0.604,0.892-0.943,1.241s-0.67,0.676-0.992,0.973c-0.32,0.299-0.695,0.621-1.131,0.967
		c-0.438,0.349-0.922,0.698-1.451,1.053c-0.529,0.354-1.088,0.672-1.676,0.956c-1.334,0.647-2.561,0.972-3.68,0.972
		c-1.633,0-2.627-0.42-2.984-1.265c-0.111-0.252-0.168-0.536-0.168-0.848c0-0.314,0.059-0.651,0.18-1.012
		c0.117-0.363,0.275-0.722,0.469-1.08c0.387-0.707,0.846-1.333,1.375-1.878c0.447-0.469,0.672-0.749,0.672-0.838
		c0-0.143-0.08-0.231-0.24-0.27c-0.16-0.036-0.398-0.055-0.711-0.055c-0.135,0-0.422,0.192-0.861,0.581L70.43,13.26
		C69.268,14.318,68.508,14.848,68.148,14.848z"/>
	<path fill="#444444" d="M97.521,10.32c0.357,0,0.537,0.201,0.537,0.604c0,0.268-0.09,0.604-0.273,1.012
		c-0.182,0.405-0.447,0.785-0.789,1.139c-0.344,0.354-0.734,0.722-1.178,1.104c-0.445,0.379-0.963,0.777-1.555,1.195
		c-0.594,0.417-1.248,0.831-1.965,1.24c-0.715,0.412-1.475,0.778-2.279,1.107c-1.781,0.729-3.508,1.097-5.178,1.097
		c-1.275,0-2.389-0.333-3.344-0.995C80.5,17.13,80,16.288,80,15.295c0-1.558,0.84-3.036,2.516-4.438
		c1.447-1.206,3.15-2.142,5.109-2.806c1.193-0.403,2.203-0.604,3.031-0.604c0.67,0,1.236,0.164,1.699,0.492
		c0.492,0.358,0.738,0.839,0.738,1.442c0,0.948-0.75,1.993-2.248,3.141c-0.238,0.188-0.455,0.344-0.648,0.472l-0.402,0.267
		c-0.744,0.522-1.877,1.107-3.398,1.756c0.471,0.245,0.908,0.368,1.314,0.368s0.773-0.046,1.096-0.144
		c0.324-0.098,0.691-0.235,1.1-0.414c0.41-0.18,0.85-0.394,1.316-0.644c0.467-0.248,0.936-0.523,1.412-0.821
		c1.066-0.663,1.99-1.342,2.773-2.036c0.41-0.379,0.932-0.681,1.564-0.905C97.182,10.354,97.365,10.32,97.521,10.32z M85.189,13.462
		l0.613-0.312c0.203-0.105,0.381-0.201,0.537-0.29c1.506-0.865,2.363-1.398,2.572-1.6s0.312-0.342,0.312-0.42
		s-0.021-0.17-0.066-0.273c-0.045-0.104-0.105-0.197-0.18-0.28c-0.18-0.208-0.369-0.312-0.57-0.312s-0.422,0.037-0.662,0.111
		c-0.244,0.074-0.488,0.178-0.734,0.308c-0.246,0.131-0.482,0.288-0.709,0.471s-0.428,0.378-0.6,0.585
		c-0.395,0.472-0.594,0.876-0.594,1.22S85.137,13.274,85.189,13.462z"/>
</g>
<path fill="#444444" d="M66.635,3.365l0.445-0.98c0.297-0.642,0.562-1.073,0.795-1.294c0.23-0.22,0.527-0.33,0.883-0.33
	c0.346,0,0.637,0.104,0.875,0.313c0.238,0.208,0.357,0.484,0.357,0.829c0,0.262-0.148,0.697-0.447,1.303l-0.447,0.98
	c-0.309,0.656-0.574,1.093-0.795,1.312c-0.219,0.221-0.514,0.331-0.881,0.331c-0.332,0-0.617-0.11-0.854-0.331
	c-0.24-0.219-0.359-0.496-0.359-0.829C66.207,4.383,66.35,3.947,66.635,3.365z"/>
<g>
	<path fill="#444444" d="M2.293,17.31c-0.142-0.339-0.212-0.634-0.212-0.883c0-0.25,0.067-0.546,0.201-0.89
		c0.134-0.343,0.317-0.739,0.548-1.19s0.5-0.942,0.805-1.476c0.305-0.533,0.633-1.071,0.984-1.616l1.051-1.621
		c0.365-0.529,0.723-1.021,1.073-1.476C5.252,8.636,4.147,9.1,3.428,9.55c-0.719,0.451-1.273,0.781-1.66,0.99
		c-0.388,0.208-0.708,0.312-0.962,0.312c-0.417,0-0.626-0.261-0.626-0.782c0-0.745,0.388-1.662,1.163-2.751
		C2.147,6.194,2.98,5.497,3.841,5.229c0.861-0.268,1.823-0.523,2.885-0.766s2.167-0.453,3.315-0.632
		c2.49-0.388,4.804-0.581,6.943-0.581c2.445,0,4.006,0.23,4.685,0.693c0.604,0.41,1.013,0.977,1.229,1.699
		c0.104,0.351,0.157,0.727,0.157,1.129s-0.196,0.822-0.587,1.258c-0.392,0.437-0.911,0.849-1.56,1.235
		c-1.222,0.746-2.825,1.417-4.808,2.013c1.125,0.217,1.906,0.464,2.342,0.744c0.436,0.279,0.744,0.559,0.922,0.838
		c0.179,0.28,0.269,0.634,0.269,1.062s-0.187,0.87-0.559,1.325c-0.373,0.454-0.889,0.879-1.548,1.274s-1.439,0.753-2.337,1.073
		c-0.898,0.32-1.873,0.593-2.924,0.816c-2.191,0.477-4.472,0.716-6.843,0.716c-1.028,0-1.86-0.303-2.493-0.906
		C2.647,17.952,2.435,17.648,2.293,17.31z M9.158,9.824c-1.118,1.938-1.677,3.279-1.677,4.025c0,0.343,0.179,0.663,0.537,0.961
		c0.335,0.283,0.686,0.425,1.051,0.425s0.768-0.017,1.208-0.05c0.44-0.034,0.891-0.08,1.353-0.14
		c0.462-0.06,0.917-0.131,1.364-0.213c0.447-0.082,0.846-0.175,1.197-0.279c0.775-0.231,1.163-0.466,1.163-0.704
		c0-0.433-0.6-0.79-1.8-1.074c-0.977-0.224-1.908-0.335-2.795-0.335c-0.343,0-0.589-0.068-0.738-0.207
		c-0.149-0.138-0.224-0.298-0.224-0.48s0.091-0.373,0.274-0.57c0.182-0.197,0.43-0.359,0.743-0.486
		c2.534-0.634,4.651-1.346,6.351-2.136c0.834-0.388,1.252-0.682,1.252-0.883c0-0.291-0.086-0.525-0.257-0.705
		c-0.306-0.32-0.645-0.48-1.017-0.48c-0.373,0-0.798,0.015-1.275,0.045c-0.477,0.029-0.991,0.074-1.543,0.134
		c-1.215,0.119-2.419,0.291-3.611,0.515c-0.171,0.351-0.399,0.745-0.682,1.186L9.158,9.824z"/>
</g>
</svg>
